HIERARCHY
ROOT Hips
{
 OFFSET 0.000000 0.000000 0.000000
 CHANNELS 6 Xposition Yposition Zposition Yrotation Xrotation Zrotation
 JOINT Chest
 {
  OFFSET 0.000000 9.585900 0.002600
  CHANNELS 3 Yrotation Xrotation Zrotation
  JOINT Chest2
  {
   OFFSET 0.000000 9.601200 -0.005300
   CHANNELS 3 Yrotation Xrotation Zrotation
   JOINT Chest3
   {
    OFFSET 0.000000 9.561800 0.000000
    CHANNELS 3 Yrotation Xrotation Zrotation
    JOINT Chest4
    {
     OFFSET 0.000000 9.552100 0.000000
     CHANNELS 3 Yrotation Xrotation Zrotation
     JOINT Neck
     {
      OFFSET 0.000000 14.453000 0.000000
      CHANNELS 3 Yrotation Xrotation Zrotation
      JOINT Head
      {
       OFFSET 0.000000 8.936500 -0.011300
       CHANNELS 3 Yrotation Xrotation Zrotation
       End Site
       {
        OFFSET 0.000000 17.073600 -0.006000
       }
      }
     }
     JOINT RightCollar
     {
      OFFSET -2.921100 9.558500 0.000000
      CHANNELS 3 Yrotation Xrotation Zrotation
      JOINT RightShoulder
      {
       OFFSET -13.519700 0.000000 0.000000
       CHANNELS 3 Yrotation Xrotation Zrotation
       JOINT RightElbow
       {
        OFFSET 0.000000 -29.696600 0.000000
        CHANNELS 3 Yrotation Xrotation Zrotation
        JOINT RightWrist
        {
         OFFSET 0.000000 -24.004700 0.000000
         CHANNELS 3 Yrotation Xrotation Zrotation
         End Site
         {
          OFFSET 0.000000 -17.728500 0.000000
         }
        }
       }
      }
     }
     JOINT LeftCollar
     {
      OFFSET 2.921100 9.558500 0.000000
      CHANNELS 3 Yrotation Xrotation Zrotation
      JOINT LeftShoulder
      {
       OFFSET 13.519700 0.000000 0.000000
       CHANNELS 3 Yrotation Xrotation Zrotation
       JOINT LeftElbow
       {
        OFFSET 0.000000 -29.696600 0.000000
        CHANNELS 3 Yrotation Xrotation Zrotation
        JOINT LeftWrist
        {
         OFFSET 0.000000 -24.004700 0.000000
         CHANNELS 3 Yrotation Xrotation Zrotation
         End Site
         {
          OFFSET 0.000000 -17.728500 0.000000
         }
        }
       }
      }
     }
    }
   }
  }
 }
 JOINT RightHip
 {
  OFFSET -7.771700 -0.012900 -0.001300
  CHANNELS 3 Yrotation Xrotation Zrotation
  JOINT RightKnee
  {
   OFFSET 0.000000 -40.869800 0.001200
   CHANNELS 3 Yrotation Xrotation Zrotation
   JOINT RightAnkle
   {
    OFFSET 0.000000 -39.717900 0.002100
    CHANNELS 3 Yrotation Xrotation Zrotation
    JOINT RightToe
    {
     OFFSET 0.000000 -4.965400 11.033500
     CHANNELS 3 Yrotation Xrotation Zrotation
     End Site
     {
      OFFSET 0.000000 -1.423100 5.872300
     }
    }
   }
  }
 }
 JOINT LeftHip
 {
  OFFSET 7.771700 -0.012900 -0.001300
  CHANNELS 3 Yrotation Xrotation Zrotation
  JOINT LeftKnee
  {
   OFFSET 0.000000 -40.869800 0.001200
   CHANNELS 3 Yrotation Xrotation Zrotation
   JOINT LeftAnkle
   {
    OFFSET 0.000000 -39.717900 0.002100
    CHANNELS 3 Yrotation Xrotation Zrotation
    JOINT LeftToe
    {
     OFFSET 0.000000 -4.965400 11.033500
     CHANNELS 3 Yrotation Xrotation Zrotation
     End Site
     {
      OFFSET 0.000000 -1.423100 5.872300
     }
    }
   }
  }
 }
}
MOTION
Frames: 7
Frame Time: 0.008333
0.000000 85.388000 0.000000 0.000000 -5.767877 0.000000 0.000000 11.653817 0.000000 0.000000 -5.885947 0.000000 0.000000 -0.000000 0.000000 0.000000 -0.000000 0.000000 0.000000 12.528835 0.000000 0.000000 0.711642 0.000000 0.000000 -0.000000 0.000000 0.000000 0.000000 -90.000000 0.000000 -2.309062 0.000000 0.000000 2.309062 0.000000 0.000000 -0.000000 0.000000 0.000000 -0.000000 90.000000 0.000000 -2.309062 0.000000 0.000000 2.309062 0.000000 0.000000 8.520406 0.000000 0.000000 1.905762 0.000000 -0.000000 -4.658285 0.000000 0.000000 -0.000000 0.000000 0.000000 8.520406 0.000000 0.000000 1.905762 0.000000 -0.000000 -4.658285 0.000000 0.000000 -0.000000 0.000000
-39.141140 50.497455 17.786891 166.891994 -10.503114 -0.236458 2.658604 7.444032 1.030841 0.109430 0.366190 -0.009531 0.211037 0.631206 0.011149 2.331979 7.163398 0.166465 2.613725 18.203270 -0.139054 4.880340 -1.911345 -1.062871 2.297953 4.615405 -0.082825 -3.327455 -12.126992 -6.220568 26.032828 -57.942552 -12.383420 -0.380909 1.374119 -32.162139 -6.095693 0.248623 0.220451 8.796277 -11.242887 4.156918 -31.204056 -58.927147 9.361106 0.960358 1.300378 22.584303 -10.622399 -69.401306 0.032481 -137.675346 81.774756 -135.272738 -2.145429 -17.941730 -2.389590 -0.464373 0.710281 -0.229509 -3.168552 -74.819662 18.835069 97.542333 78.614280 93.841330 -16.184688 -22.015639 2.613185 -0.097495 -1.129765 -0.050896
-39.143261 50.498753 17.784654 166.892202 -10.507473 -0.218064 2.662535 7.446084 1.022806 0.111230 0.365785 -0.007746 0.204765 0.633583 0.002786 2.344896 7.154926 0.176247 2.622263 18.240324 -0.115408 4.855544 -1.876647 -1.062723 2.242378 4.705545 -0.103465 -3.538206 -12.068249 -6.092468 25.311688 -58.541413 -11.692511 -0.597816 1.045133 -32.201268 -6.033440 0.291764 0.238867 9.050734 -11.121146 4.074371 -30.527036 -59.471861 8.713270 1.045573 1.302586 22.466443 -10.586219 -69.399909 -0.017141 -137.718841 81.777496 -135.312663 -2.158411 -17.950094 -2.393977 -0.448040 0.715406 -0.223669 -3.089030 -74.816546 18.751064 97.547220 78.613679 93.860982 -16.229900 -22.020571 2.613575 -0.098562 -1.130452 -0.048852
-39.145693 50.499799 17.783376 166.898761 -10.504866 -0.199486 2.658619 7.441424 1.011549 0.112156 0.364947 -0.006585 0.205293 0.632815 0.003028 2.349799 7.151998 0.178379 2.617088 18.261803 -0.112613 4.846553 -1.857950 -1.059129 2.201425 4.747836 -0.113792 -3.727702 -11.971736 -5.992553 24.662536 -59.120489 -11.057858 -0.779173 0.730360 -32.235393 -5.984025 0.330099 0.258015 9.296896 -11.000092 3.995281 -29.921394 -60.010459 8.139744 1.126125 1.301635 22.355308 -10.552718 -69.403630 -0.071266 -137.750705 81.780690 -135.339220 -2.168215 -17.963959 -2.399892 -0.432110 0.725658 -0.217108 -3.062458 -74.815402 18.704497 97.547404 78.605108 93.856762 -16.231256 -22.024032 2.614650 -0.088809 -1.134930 -0.051805
-39.142426 50.501176 17.780592 166.889931 -10.518740 -0.208369 2.671206 7.451789 1.030955 0.116605 0.365008 -0.005697 0.205814 0.632612 0.003222 2.347715 7.149439 0.177296 2.612165 18.272968 -0.115260 4.845229 -1.829659 -1.048234 2.161327 4.790885 -0.118725 -3.884056 -11.889364 -5.910673 24.085248 -59.677661 -10.475401 -0.930071 0.424120 -32.281153 -5.930046 0.369404 0.274213 9.521339 -10.888398 3.925601 -29.394161 -60.539971 7.644306 1.201907 1.296702 22.251206 -10.572467 -69.385275 -0.051169 -137.773903 81.783844 -135.354852 -2.170733 -17.963111 -2.399081 -0.427420 0.722860 -0.214571 -3.114547 -74.798010 18.761385 97.580980 78.602209 93.888437 -16.190289 -22.043537 2.611355 -0.084705 -1.133705 -0.056963
-39.140185 50.502075 17.778786 166.886957 -10.525532 -0.212744 2.674765 7.454012 1.044644 0.117808 0.361006 0.001815 0.206447 0.636893 -0.005915 2.346147 7.151563 0.173045 2.618573 18.293858 -0.100779 4.847106 -1.725286 -1.005892 2.138062 4.818558 -0.116717 -4.027046 -11.808009 -5.844989 23.586283 -60.216890 -9.956602 -1.061525 0.128216 -32.344770 -5.884589 0.397721 0.292924 9.737098 -10.777627 3.864750 -28.939065 -61.059257 7.218446 1.270976 1.294852 22.150112 -10.583632 -69.376784 -0.045978 -137.801706 81.784745 -135.375201 -2.167837 -17.961795 -2.407561 -0.425266 0.719274 -0.208400 -3.137945 -74.789760 18.786234 97.594723 78.601297 93.900558 -16.145204 -22.048881 2.608342 -0.098672 -1.137998 -0.063839
-39.140434 50.502436 17.777781 166.887994 -10.524687 -0.203465 2.672061 7.450845 1.039281 0.116571 0.356542 0.006184 0.207636 0.638990 -0.004190 2.347021 7.145228 0.174950 2.622878 18.335387 -0.077155 4.845460 -1.665376 -0.995594 2.121434 4.848923 -0.123783 -4.152898 -11.729947 -5.797121 23.153168 -60.746253 -9.497911 -1.181094 -0.149281 -32.429168 -5.851829 0.436597 0.301764 9.943729 -10.680497 3.809807 -28.540078 -61.567662 6.844965 1.329708 1.299892 22.047809 -10.564102 -69.380275 -0.077204 -137.842010 81.786527 -135.412465 -2.167378 -17.963405 -2.404755 -0.423874 0.719544 -0.210651 -3.156691 -74.785042 18.800343 97.591373 78.598637 93.883898 -16.126637 -22.044059 2.604960 -0.113385 -1.144201 -0.068810
